<svg width="33" height="33" viewBox="0 0 33 33" fill="none" xmlns="http://www.w3.org/2000/svg">
<path d="M31.625 4.12491C30.3083 5.05369 28.8504 5.76406 27.3075 6.22866C26.4794 5.27649 25.3788 4.60161 24.1547 4.29531C22.9305 3.98901 21.6418 4.06605 20.4629 4.51603C19.2839 4.96601 18.2716 5.76721 17.5629 6.81127C16.8541 7.85533 16.4831 9.09187 16.5 10.3537V11.7287C14.0836 11.7913 11.6893 11.2554 9.53014 10.1686C7.37102 9.08189 5.51419 7.47803 4.125 5.49991C4.125 5.49991 -1.375 17.8749 11 23.3749C8.16823 25.2971 4.79484 26.2609 1.375 26.1249C13.75 32.9999 28.875 26.1249 28.875 10.3124C28.8737 9.92941 28.8369 9.54735 28.765 9.17116C30.1683 7.78721 31.1586 6.03989 31.625 4.12491V4.12491Z" stroke="#EDF2F4" stroke-width="1.33333" stroke-linecap="round" stroke-linejoin="round"/>
</svg>
